<mxfile host="app.diagrams.net" agent="Mozilla/5.0 (Windows NT 10.0; Win64; x64) AppleWebKit/537.36 (KHTML, like Gecko) Chrome/130.0.0.0 Safari/537.36" version="24.8.3">
  <diagram name="Halaman-1" id="a6zHfRgpKx6tmC8i22-r">
    <mxGraphModel dx="1222" dy="636" grid="1" gridSize="10" guides="1" tooltips="1" connect="1" arrows="1" fold="1" page="1" pageScale="1" pageWidth="827" pageHeight="1169" math="0" shadow="0">
      <root>
        <mxCell id="0" />
        <mxCell id="1" parent="0" />
        <mxCell id="OKx-EQB38z_Kik_lbw9B-4" style="edgeStyle=orthogonalEdgeStyle;rounded=0;orthogonalLoop=1;jettySize=auto;html=1;" parent="1" source="OKx-EQB38z_Kik_lbw9B-1" target="OKx-EQB38z_Kik_lbw9B-2" edge="1">
          <mxGeometry relative="1" as="geometry" />
        </mxCell>
        <mxCell id="OKx-EQB38z_Kik_lbw9B-1" value="" style="strokeWidth=2;html=1;shape=mxgraph.flowchart.terminator;whiteSpace=wrap;" parent="1" vertex="1">
          <mxGeometry x="210" y="90" width="160" height="50" as="geometry" />
        </mxCell>
        <mxCell id="OKx-EQB38z_Kik_lbw9B-2" value="" style="shape=parallelogram;perimeter=parallelogramPerimeter;whiteSpace=wrap;html=1;fixedSize=1;" parent="1" vertex="1">
          <mxGeometry x="230" y="190" width="120" height="60" as="geometry" />
        </mxCell>
        <mxCell id="OKx-EQB38z_Kik_lbw9B-8" style="edgeStyle=orthogonalEdgeStyle;rounded=0;orthogonalLoop=1;jettySize=auto;html=1;entryX=0.5;entryY=0;entryDx=0;entryDy=0;" parent="1" source="OKx-EQB38z_Kik_lbw9B-5" target="OKx-EQB38z_Kik_lbw9B-7" edge="1">
          <mxGeometry relative="1" as="geometry" />
        </mxCell>
        <mxCell id="OKx-EQB38z_Kik_lbw9B-5" value="" style="shape=process;whiteSpace=wrap;html=1;backgroundOutline=1;" parent="1" vertex="1">
          <mxGeometry x="220" y="300" width="120" height="60" as="geometry" />
        </mxCell>
        <mxCell id="OKx-EQB38z_Kik_lbw9B-6" style="edgeStyle=orthogonalEdgeStyle;rounded=0;orthogonalLoop=1;jettySize=auto;html=1;entryX=0.5;entryY=0.167;entryDx=0;entryDy=0;entryPerimeter=0;exitX=0.417;exitY=1;exitDx=0;exitDy=0;exitPerimeter=0;" parent="1" source="OKx-EQB38z_Kik_lbw9B-2" target="OKx-EQB38z_Kik_lbw9B-5" edge="1">
          <mxGeometry relative="1" as="geometry" />
        </mxCell>
        <mxCell id="OKx-EQB38z_Kik_lbw9B-10" style="edgeStyle=orthogonalEdgeStyle;rounded=0;orthogonalLoop=1;jettySize=auto;html=1;" parent="1" source="OKx-EQB38z_Kik_lbw9B-7" target="OKx-EQB38z_Kik_lbw9B-9" edge="1">
          <mxGeometry relative="1" as="geometry" />
        </mxCell>
        <mxCell id="OKx-EQB38z_Kik_lbw9B-7" value="" style="shape=parallelogram;perimeter=parallelogramPerimeter;whiteSpace=wrap;html=1;fixedSize=1;" parent="1" vertex="1">
          <mxGeometry x="220" y="420" width="120" height="60" as="geometry" />
        </mxCell>
        <mxCell id="OKx-EQB38z_Kik_lbw9B-9" value="" style="strokeWidth=2;html=1;shape=mxgraph.flowchart.terminator;whiteSpace=wrap;" parent="1" vertex="1">
          <mxGeometry x="200" y="534.5" width="160" height="50" as="geometry" />
        </mxCell>
        <mxCell id="OKx-EQB38z_Kik_lbw9B-11" value="Mulai&amp;nbsp;" style="text;html=1;align=center;verticalAlign=middle;whiteSpace=wrap;rounded=0;" parent="1" vertex="1">
          <mxGeometry x="270" y="100" width="60" height="30" as="geometry" />
        </mxCell>
        <mxCell id="OKx-EQB38z_Kik_lbw9B-12" value="Flowchart Menghitung Volume Kubus (function)" style="text;html=1;align=center;verticalAlign=middle;whiteSpace=wrap;rounded=0;labelBackgroundColor=none;labelBorderColor=none;fontStyle=1;spacingTop=4;fontSize=17;fillColor=#1ba1e2;strokeColor=#006EAF;fontColor=#ffffff;" parent="1" vertex="1">
          <mxGeometry x="170" y="20" width="345" height="46" as="geometry" />
        </mxCell>
        <mxCell id="OKx-EQB38z_Kik_lbw9B-14" value="Input sisi kubus" style="text;html=1;align=center;verticalAlign=middle;whiteSpace=wrap;rounded=0;" parent="1" vertex="1">
          <mxGeometry x="260" y="205" width="60" height="30" as="geometry" />
        </mxCell>
        <mxCell id="OKx-EQB38z_Kik_lbw9B-15" value="Panggil fungsi hitungVolume" style="text;html=1;align=center;verticalAlign=middle;whiteSpace=wrap;rounded=0;" parent="1" vertex="1">
          <mxGeometry x="250" y="315" width="60" height="30" as="geometry" />
        </mxCell>
        <mxCell id="OKx-EQB38z_Kik_lbw9B-16" value="Output volume   " style="text;html=1;align=center;verticalAlign=middle;whiteSpace=wrap;rounded=0;" parent="1" vertex="1">
          <mxGeometry x="250" y="435" width="60" height="30" as="geometry" />
        </mxCell>
        <mxCell id="OKx-EQB38z_Kik_lbw9B-17" value="selesai" style="text;html=1;align=center;verticalAlign=middle;whiteSpace=wrap;rounded=0;" parent="1" vertex="1">
          <mxGeometry x="250" y="544.5" width="60" height="30" as="geometry" />
        </mxCell>
      </root>
    </mxGraphModel>
  </diagram>
</mxfile>
